<?xml version="1.0" encoding="utf-8"?>
<!-- Generator: Adobe Illustrator 16.0.0, SVG Export Plug-In . SVG Version: 6.00 Build 0)  -->
<!DOCTYPE svg PUBLIC "-//W3C//DTD SVG 1.1//EN" "http://www.w3.org/Graphics/SVG/1.1/DTD/svg11.dtd">
<svg version="1.1" id="Layer_1" xmlns="http://www.w3.org/2000/svg" xmlns:xlink="http://www.w3.org/1999/xlink" x="0px" y="0px"
	 width="547.5px" height="1879.151px" viewBox="696.24 112.849 547.5 1879.151"
	 enable-background="new 696.24 112.849 547.5 1879.151" xml:space="preserve">
<path fill="#666666" d="M1234.156,1913.811l-188.78-257.777l-52.924,155.902L981.824,1992l212.678-0.001
	C1234.746,1991.998,1257.934,1946.279,1234.156,1913.811z"/>
<g>
	<path fill="#808080" d="M958.149,1991.998l8.996-191.313l-72.542-144.655l-188.78,257.78c-23.774,32.468-0.59,78.187,39.655,78.188
		H958.149z"/>
	<polygon fill="#808080" points="1178.236,942.737 1178.207,400.855 974.44,323.845 761.795,400.883 761.795,942.739 
		961.786,1112.544 	"/>
</g>
<polygon fill="#B3B3B3" points="1045.373,1656.035 1178.205,953.904 1178.236,942.737 761.795,942.739 761.823,953.902 
	894.6,1656.032 974.438,1724.104 "/>
<polygon fill="#999999" points="986.827,1707.898 894.6,1656.032 761.823,953.902 761.795,942.739 881.094,942.739 881.119,953.904 
	"/>
<polygon fill="#4D4D4D" points="981.824,1992 1045.373,1656.035 894.6,1656.032 958.149,1991.998 "/>
<path fill="#FCBB29" d="M761.795,400.883l416.416-0.03v-2.811v-86.721c0-9.223-0.983-19.038-2.898-29.272
	c-41.139-225.603-369.458-225.598-410.65,0.002c-1.854,10.235-2.838,20.049-2.838,29.272l-0.025,86.747L761.795,400.883z"/>
<polygon fill="#666666" points="881.092,400.885 881.094,942.739 761.795,942.739 761.795,400.883 1178.207,400.855 
	1178.209,400.864 "/>
<path fill="#D39A29" d="M883.959,282.054c-1.855,10.235-2.84,20.048-2.84,29.272l-0.025,86.746v2.803l-119.303,0.006v-2.811
	l0.03-86.742c0-9.224,0.984-19.037,2.838-29.272c25.085-137.383,156.649-191.1,264.995-161.159
	C960.078,140.119,900.069,193.839,883.959,282.054z"/>
</svg>
