<?xml version="1.0" encoding="utf-8"?>
<!-- Generator: Adobe Illustrator 16.0.0, SVG Export Plug-In . SVG Version: 6.00 Build 0)  -->
<!DOCTYPE svg PUBLIC "-//W3C//DTD SVG 1.1//EN" "http://www.w3.org/Graphics/SVG/1.1/DTD/svg11.dtd">
<svg version="1.1" id="Capa_1" xmlns="http://www.w3.org/2000/svg" xmlns:xlink="http://www.w3.org/1999/xlink" x="0px" y="0px"
	 width="1020px" height="1920px" viewBox="449.998 40 1020 1920" enable-background="new 449.998 40 1020 1920"
	 xml:space="preserve">
<g>
	<g>
		<g>
			<path fill="#FF4F19" d="M1188.835,1190.68c1.319-12.687,10.488-23.176,22.908-26.119c12.394-2.929,25.343,2.258,32.228,13.009
				l183.81,287.357c27.626,43.388,42.218,93.514,42.218,144.96v320.109c0,12.687-7.969,23.992-19.921,28.256
				c-3.281,1.171-6.708,1.744-10.079,1.744c-8.82,0-17.404-3.896-23.231-11.002l-263.699-322.308
				c-5.04-6.181-7.414-14.122-6.622-22.062L1188.835,1190.68z"/>
		</g>
		<g>
			<path fill="#E9001E" d="M731.16,1190.68c-1.32-12.687-10.488-23.176-22.908-26.119c-12.394-2.929-25.343,2.258-32.228,13.009
				l-183.81,287.357c-27.626,43.388-42.217,93.514-42.217,144.96v320.109c0,12.687,7.969,23.992,19.92,28.256
				c3.281,1.171,6.709,1.744,10.08,1.744c8.819,0,17.403-3.896,23.23-11.002l263.699-322.308c5.04-6.181,7.414-14.122,6.623-22.062
				L731.16,1190.68z"/>
		</g>
		<g>
			<path fill="#FFD200" d="M975.439,44.286c-9.491-5.711-21.387-5.711-30.878,0c-12.832,7.706-314.56,193.357-314.56,595.719
				c0,162.465,40.372,594.726,93.926,1005.465c7.763,59.591,58.886,104.531,118.855,104.531h234.435
				c59.97,0,111.093-44.94,118.855-104.531c53.554-410.739,93.926-843,93.926-1005.465
				C1289.998,237.643,988.271,51.989,975.439,44.286z"/>
		</g>
		<g>
			<path fill="#FF9600" d="M960,1750.001H842.782c-59.97,0-111.093-44.94-118.855-104.531
				c-53.554-410.739-93.926-843-93.926-1005.465c0-402.362,301.728-588.016,314.56-595.719c4.729-2.846,10.058-4.268,15.387-4.278
				h0.056v1709.993H960z"/>
		</g>
		<g>
			<circle fill="#53DCFF" cx="960" cy="670.005" r="179.999"/>
		</g>
		<g>
			<g>
				<path fill="#FF4F19" d="M960,1960c-16.583,0-30-13.433-30-30v-719.997c0-16.567,13.417-30,30-30
					c16.582,0,29.999,13.433,29.999,30V1930C989.999,1946.567,976.582,1960,960,1960z"/>
			</g>
		</g>
		<g>
			<path fill="#FF4F19" d="M944.561,44.286c-8.58,5.152-146.174,89.958-236.516,265.72h503.908
				c-90.341-175.762-227.935-260.571-236.515-265.72C965.948,38.571,954.052,38.571,944.561,44.286z"/>
		</g>
		<g>
			<path fill="#E9001E" d="M960,40c-5.348,0-10.695,1.429-15.439,4.286c-8.58,5.152-146.174,89.958-236.516,265.72H960V40z"/>
		</g>
		<g>
			<path fill="#B3F4FF" d="M1139.999,670.005c0-99.412-80.587-179.999-179.999-179.999v359.998
				C1059.411,850.004,1139.999,769.417,1139.999,670.005z"/>
		</g>
	</g>
	<g>
		<g>
			<path fill="#5C546A" d="M960,880.004c-115.781,0-210-94.203-210-209.999s94.219-209.999,210-209.999
				c115.78,0,209.999,94.203,209.999,209.999S1075.781,880.004,960,880.004z M960,520.006c-82.706,0-150,67.293-150,149.999
				s67.294,149.999,150,149.999c82.705,0,149.999-67.293,149.999-149.999S1042.705,520.006,960,520.006z"/>
		</g>
	</g>
</g>
</svg>
