<?xml version="1.0" encoding="utf-8"?>
<!-- Generator: Adobe Illustrator 16.0.0, SVG Export Plug-In . SVG Version: 6.00 Build 0)  -->
<!DOCTYPE svg PUBLIC "-//W3C//DTD SVG 1.1//EN" "http://www.w3.org/Graphics/SVG/1.1/DTD/svg11.dtd">
<svg version="1.1" id="Calque_1" xmlns="http://www.w3.org/2000/svg" xmlns:xlink="http://www.w3.org/1999/xlink" x="0px" y="0px"
	 width="91px" height="85px" viewBox="0 0 91 85" enable-background="new 0 0 91 85" xml:space="preserve">
<path d="M80.75,22.013V11.507V1H70.501h-0.257H59.995v10.507H49.744v10.506h-9.993V11.507H29.502h-0.257h-0.427V1H18.312v0.173
	H8.747v10.334v0.172v10.334h-10.25v10.506v10.506v10.509v10.504v10.508h10.25h0.255h9.994v10.506h10.506V74.545h9.993v10.506h10.506
	V74.545h9.994v10.506h10.506V74.545h9.992h0.257H91v-10.51V53.531V43.023V32.518V22.012L80.75,22.013L80.75,22.013z M80.493,43.024
	h-8.97h-1.151h-0.128h-9.226h-0.77V32.519h9.994H70.5h9.992L80.493,43.024L80.493,43.024z M9.002,32.519h9.994h0.256h9.993v10.506
	h-9.993h-0.256H9.002V32.519z"/>
</svg>
