<?xml version="1.0" encoding="utf-8"?>
<!-- Generator: Adobe Illustrator 16.0.0, SVG Export Plug-In . SVG Version: 6.00 Build 0)  -->
<!DOCTYPE svg PUBLIC "-//W3C//DTD SVG 1.1//EN" "http://www.w3.org/Graphics/SVG/1.1/DTD/svg11.dtd">
<svg version="1.1" id="Calque_1" xmlns="http://www.w3.org/2000/svg" xmlns:xlink="http://www.w3.org/1999/xlink" x="0px" y="0px"
	 width="89px" height="82px" viewBox="0 0 89 82" enable-background="new 0 0 89 82" xml:space="preserve">
<path d="M79.693,32.032h-0.326v-10.01h-9.766V12.012h-9.766V11.93h9.521h0.244h9.766V1.92h-9.766h-0.244h-9.764v0.082h-9.768v10.01
	v10.011h-9.521V12.012V2.002H30.297v0.365h-9.521h-0.244h-9.765v10.01h9.765v9.646h-9.765v10.01H9.589H1V42.04v10.01v10.01h9.767
	V72.07h9.765v10.01h10.01V72.07h9.521h0.244h9.521h0.244h9.522v10.01h10.008V72.07h9.766V62.06h9.766V52.05V42.04V32.032H79.693z
	 M69.686,32.032V42.04v10.01h-0.082h-0.244h-9.521V42.04v-0.732h9.766v-9.274L69.686,32.032L69.686,32.032z M21.228,52.05V42.04
	v-1.219h9.07v1.219v10.01H21.228z"/>
</svg>
